<svg width="26" height="26" viewBox="0 0 26 26" fill="none" xmlns="http://www.w3.org/2000/svg">
<path d="M8.21828 4.33337C6.43069 4.33337 4.88053 5.60008 4.52394 7.35274L4.1452 9.20837H2.97935C2.87168 9.20685 2.76478 9.22674 2.66487 9.26689C2.56496 9.30704 2.47403 9.36665 2.39735 9.44224C2.32067 9.51784 2.25979 9.60793 2.21823 9.70726C2.17667 9.80659 2.15527 9.9132 2.15527 10.0209C2.15527 10.1286 2.17667 10.2352 2.21823 10.3345C2.25979 10.4338 2.32067 10.5239 2.39735 10.5995C2.47403 10.6751 2.56496 10.7347 2.66487 10.7749C2.76478 10.815 2.87168 10.8349 2.97935 10.8334H3.25441C2.55998 11.5416 2.16685 12.4928 2.16685 13.4846V17.3334V17.5386V20.5834C2.16685 21.1814 2.65218 21.6667 3.25018 21.6667H4.33351C4.93151 21.6667 5.41685 21.1814 5.41685 20.5834V19.5022H20.5835V20.5834C20.5835 21.1814 21.0688 21.6667 21.6668 21.6667H22.7502C23.3482 21.6667 23.8335 21.1814 23.8335 20.5834V17.5598C23.8336 17.5526 23.8356 17.5458 23.8356 17.5386V13.4846C23.8356 12.492 23.4401 11.5412 22.7459 10.8334H23.021C23.1287 10.8349 23.2356 10.815 23.3355 10.7749C23.4354 10.7347 23.5263 10.6751 23.603 10.5995C23.6797 10.5239 23.7406 10.4338 23.7821 10.3345C23.8237 10.2352 23.8451 10.1286 23.8451 10.0209C23.8451 9.9132 23.8237 9.80659 23.7821 9.70726C23.7406 9.60793 23.6797 9.51784 23.603 9.44224C23.5263 9.36665 23.4354 9.30704 23.3355 9.26689C23.2356 9.22674 23.1287 9.20685 23.021 9.20837H21.8552L21.4785 7.35274C21.1219 5.60008 19.5705 4.33337 17.7821 4.33337H8.21828ZM8.21828 5.95837H17.7821C18.8082 5.95837 19.6807 6.67097 19.8853 7.67647V7.67859L20.501 10.6937C20.5331 10.8511 20.6112 10.9954 20.7253 11.1084L21.5695 11.9463V11.9484C21.9793 12.355 22.2106 12.9063 22.2106 13.4846V17.5386C22.2106 17.7344 22.0679 17.8772 21.8721 17.8772H4.12827C3.9325 17.8771 3.79185 17.7344 3.79185 17.5386V13.4846C3.79185 12.9077 4.02147 12.3547 4.43084 11.9484V11.9463L5.2772 11.1084C5.39053 10.9951 5.46782 10.8508 5.49937 10.6937L6.11509 7.67859V7.67647C6.31966 6.67096 7.19353 5.95837 8.21828 5.95837ZM6.50018 13C5.90218 13 5.41685 13.4854 5.41685 14.0834V15.1667H6.50018C7.09818 15.1667 7.58351 14.6814 7.58351 14.0834V13H6.50018ZM9.75018 13V13.6475C9.75018 14.2358 10.1191 14.7632 10.6727 14.9636L13.0002 15.8057L15.3277 14.9636C15.8812 14.7621 16.2502 14.2358 16.2502 13.6475V13H9.75018ZM18.4168 13V14.0834C18.4168 14.6814 18.9022 15.1667 19.5002 15.1667H20.5835V14.0834C20.5835 13.4854 20.0982 13 19.5002 13H18.4168Z" fill="white"/>
</svg>
