<svg width="26" height="26" viewBox="0 0 26 26" fill="none" xmlns="http://www.w3.org/2000/svg">
<path d="M3.25 10.2916C4.13075 10.2916 4.875 11.284 4.875 12.4583C4.875 13.6326 4.13075 14.625 3.25 14.625C2.36925 14.625 1.625 13.6326 1.625 12.4583C1.625 11.284 2.36925 10.2916 3.25 10.2916ZM3.25 8.66663C1.45492 8.66663 0 10.3642 0 12.4583C0 14.5524 1.45492 16.25 3.25 16.25C5.04508 16.25 6.5 14.5524 6.5 12.4583C6.5 10.3642 5.04508 8.66663 3.25 8.66663ZM21.6667 10.2916C22.5474 10.2916 23.2917 11.284 23.2917 12.4583C23.2917 13.6326 22.5474 14.625 21.6667 14.625C20.7859 14.625 20.0417 13.6326 20.0417 12.4583C20.0417 11.284 20.7859 10.2916 21.6667 10.2916ZM21.6667 8.66663C19.8716 8.66663 18.4167 10.3642 18.4167 12.4583C18.4167 14.5524 19.8716 16.25 21.6667 16.25C23.4617 16.25 24.9167 14.5524 24.9167 12.4583C24.9167 10.3642 23.4617 8.66663 21.6667 8.66663ZM8.66667 3.79163C9.54742 3.79163 10.2917 4.78396 10.2917 5.95829C10.2917 7.13263 9.54742 8.12496 8.66667 8.12496C7.78592 8.12496 7.04167 7.13263 7.04167 5.95829C7.04167 4.78396 7.78592 3.79163 8.66667 3.79163ZM8.66667 2.16663C6.87158 2.16663 5.41667 3.86421 5.41667 5.95829C5.41667 8.05238 6.87158 9.74996 8.66667 9.74996C10.4617 9.74996 11.9167 8.05238 11.9167 5.95829C11.9167 3.86421 10.4617 2.16663 8.66667 2.16663ZM16.25 3.79163C17.1307 3.79163 17.875 4.78396 17.875 5.95829C17.875 7.13263 17.1307 8.12496 16.25 8.12496C15.3692 8.12496 14.625 7.13263 14.625 5.95829C14.625 4.78396 15.3692 3.79163 16.25 3.79163ZM16.25 2.16663C14.4549 2.16663 13 3.86421 13 5.95829C13 8.05238 14.4549 9.74996 16.25 9.74996C18.0451 9.74996 19.5 8.05238 19.5 5.95829C19.5 3.86421 18.0451 2.16663 16.25 2.16663ZM12.4583 13.5427C13.3813 13.5427 13.7637 13.9641 14.5459 15.0789C14.9565 15.665 15.3812 16.2705 16.0117 16.7255C16.4006 17.0072 16.8231 17.2195 17.2326 17.4254C18.4297 18.0255 18.9583 18.3408 18.9583 19.5C18.9583 20.4565 18.1642 21.126 17.0278 21.126C15.9022 21.126 15.2847 20.8639 14.6315 20.5865C14.0313 20.3309 13.351 20.0416 12.4583 20.0416C11.5559 20.0416 10.8723 20.3352 10.2678 20.5952C9.63517 20.8671 9.03717 21.1239 7.97767 21.1239C7.371 21.1239 5.95833 20.9657 5.95833 19.5C5.95833 18.3733 6.45558 18.018 7.77075 17.3571C8.12717 17.1784 8.4955 16.9931 8.83242 16.7645C9.5095 16.3052 9.958 15.6736 10.3902 15.0626C11.1724 13.9587 11.5527 13.5427 12.4583 13.5427ZM12.4583 11.9177C9.71642 11.9177 9.22567 14.535 7.92025 15.4201C6.74808 16.2142 4.33333 16.6638 4.33333 19.5C4.33333 21.5204 5.889 22.7489 7.97875 22.7489C10.4032 22.7489 11.1247 21.6666 12.4583 21.6666C13.7908 21.6666 14.5112 22.751 17.0278 22.751C19.0255 22.751 20.5833 21.3839 20.5833 19.5C20.5833 16.615 18.1729 16.2835 16.965 15.4093C15.6986 14.4917 15.1981 11.9177 12.4583 11.9177Z" fill="white"/>
</svg>
