<svg preserveAspectRatio="none" width="100%" height="100%" overflow="visible" style="display: block;" viewBox="0 0 60 60" fill="none" xmlns="http://www.w3.org/2000/svg">
<g id="Group 1632526626">
<circle id="Ellipse 769" cx="30" cy="30" r="29.5" fill="var(--fill-0, white)" stroke="var(--stroke-0, #E9E9E9)"/>
<g id="Frame">
<g id="Group">
<path id="Vector" d="M33.2746 41.6167C32.2426 42.0396 31.1146 42.2813 29.9266 42.2813C25.0786 42.2813 21.1427 38.3179 21.1427 33.4483C21.1427 30.9833 22.1627 28.6996 23.7827 27.0562C24.4067 28.6392 25.9307 29.7629 27.7186 29.7629C27.7186 29.7629 27.3467 24.555 29.7466 20.9783C30.3346 20.0962 31.1266 19.2988 32.1106 18.7188C32.1106 23.4554 36.0826 25.3887 37.8586 29.3883" stroke="var(--stroke-0, #1B1D22)" stroke-width="1.5" stroke-miterlimit="10" stroke-linecap="square"/>
</g>
<path id="Star 1" d="M36.5 31L38.1688 34.3312L41.5 36L38.1688 37.6688L36.5 41L34.8312 37.6688L31.5 36L34.8312 34.3312L36.5 31Z" fill="var(--fill-0, #FF2741)"/>
</g>
</g>
</svg>
