<svg preserveAspectRatio="none" width="100%" height="100%" overflow="visible" style="display: block;" viewBox="0 0 87 87" fill="none" xmlns="http://www.w3.org/2000/svg">
<g id="Vector">
<path d="M43.8109 43.4896L44.9961 87H42.0039L43.1891 43.4896H43.8109Z" fill="url(#paint0_radial_0_4)"/>
<path d="M43.8058 43.4362L52.3207 86.1305L49.3705 86.6377L43.1942 43.5414L43.8058 43.4362Z" fill="url(#paint1_radial_0_4)"/>
<path d="M43.7925 43.3861L59.3897 84.0153L56.5679 85.0125L43.2076 43.5932L43.7925 43.3861Z" fill="url(#paint2_radial_0_4)"/>
<path d="M43.7709 43.3378L66.0145 80.746L63.403 82.2073L43.2291 43.6415L43.7709 43.3378Z" fill="url(#paint3_radial_0_4)"/>
<path d="M43.7422 43.293L71.9866 76.3933L69.6593 78.2755L43.2589 43.6846L43.7422 43.293Z" fill="url(#paint4_radial_0_4)"/>
<path d="M43.7052 43.255L77.1193 71.1106L75.142 73.3586L43.2948 43.7226L43.7052 43.255Z" fill="url(#paint5_radial_0_4)"/>
<path d="M43.6632 43.224L81.3101 65.0326L79.7411 67.5825L43.3368 43.7536L43.6632 43.224Z" fill="url(#paint6_radial_0_4)"/>
<path d="M43.616 43.2015L84.3957 58.3318L83.2792 61.1094L43.384 43.7778L43.616 43.2015Z" fill="url(#paint7_radial_0_4)"/>
<path d="M43.5657 43.186L86.3166 51.1825L85.6876 54.1102L43.4343 43.7933L43.5657 43.186Z" fill="url(#paint8_radial_0_4)"/>
<path d="M43.5133 43.1791L87 43.8416L86.8738 46.8332L43.4867 43.8002L43.5133 43.1791Z" fill="url(#paint9_radial_0_4)"/>
<path d="M43.461 43.1808L86.4284 36.48L86.8081 39.4509L43.539 43.7967L43.461 43.1808Z" fill="url(#paint10_radial_0_4)"/>
<path d="M43.4087 43.1929L84.6296 29.31L85.507 32.1738L43.5913 43.7864L43.4087 43.1929Z" fill="url(#paint11_radial_0_4)"/>
<path d="M43.3604 43.2119L81.6559 22.5643L83.0032 25.2367L43.6396 43.7674L43.3604 43.2119Z" fill="url(#paint12_radial_0_4)"/>
<path d="M43.3153 43.2395L77.576 16.4087L79.3553 18.8154L43.6847 43.7381L43.3153 43.2395Z" fill="url(#paint13_radial_0_4)"/>
<path d="M43.2763 43.274L72.5027 11.0311L74.6638 13.1031L43.7237 43.7036L43.2763 43.274Z" fill="url(#paint14_radial_0_4)"/>
<path d="M43.2424 43.3154L66.6117 6.59729L69.0908 8.27421L43.7576 43.6639L43.2424 43.3154Z" fill="url(#paint15_radial_0_4)"/>
<path d="M43.2168 43.3603L60.0547 3.22791L62.7811 4.46145L43.7832 43.6173L43.2168 43.3603Z" fill="url(#paint16_radial_0_4)"/>
<path d="M43.1993 43.4103L53.0072 1.00408L55.9029 1.75801L43.8007 43.5673L43.1993 43.4103Z" fill="url(#paint17_radial_0_4)"/>
<path d="M43.1901 43.462L45.7031 0L48.6851 0.253609L43.8099 43.5155L43.1901 43.462Z" fill="url(#paint18_radial_0_4)"/>
<path d="M43.1901 43.5155L38.3149 0.253609L41.2969 0L43.8099 43.462L43.1901 43.5155Z" fill="url(#paint19_radial_0_4)"/>
<path d="M43.1993 43.5673L31.0971 1.75801L33.9928 1.00408L43.8007 43.4103L43.1993 43.5673Z" fill="url(#paint20_radial_0_4)"/>
<path d="M43.2168 43.6173L24.2189 4.46145L26.9453 3.22791L43.7832 43.3603L43.2168 43.6173Z" fill="url(#paint21_radial_0_4)"/>
<path d="M43.2424 43.6639L17.9092 8.27421L20.3883 6.59729L43.7576 43.3154L43.2424 43.6639Z" fill="url(#paint22_radial_0_4)"/>
<path d="M43.2763 43.7036L12.3362 13.1031L14.4973 11.0311L43.7237 43.274L43.2763 43.7036Z" fill="url(#paint23_radial_0_4)"/>
<path d="M43.3153 43.7381L7.64472 18.8154L9.42404 16.4087L43.6847 43.2395L43.3153 43.7381Z" fill="url(#paint24_radial_0_4)"/>
<path d="M43.3604 43.7674L3.9968 25.2367L5.34412 22.5643L43.6396 43.2119L43.3604 43.7674Z" fill="url(#paint25_radial_0_4)"/>
<path d="M43.4087 43.7864L1.49303 32.1738L2.37038 29.31L43.5913 43.1929L43.4087 43.7864Z" fill="url(#paint26_radial_0_4)"/>
<path d="M43.461 43.7967L0.191887 39.4509L0.571558 36.48L43.539 43.1808L43.461 43.7967Z" fill="url(#paint27_radial_0_4)"/>
<path d="M43.5133 43.8002L0.126214 46.8332L0 43.8416L43.4867 43.1791L43.5133 43.8002Z" fill="url(#paint28_radial_0_4)"/>
<path d="M43.5657 43.7933L1.31243 54.1102L0.682381 51.1825L43.4343 43.186L43.5657 43.7933Z" fill="url(#paint29_radial_0_4)"/>
<path d="M43.616 43.7778L3.72077 61.1094L2.60536 58.3318L43.384 43.2015L43.616 43.7778Z" fill="url(#paint30_radial_0_4)"/>
<path d="M43.6632 43.7536L7.25889 67.5825L5.68993 65.0326L43.3368 43.224L43.6632 43.7536Z" fill="url(#paint31_radial_0_4)"/>
<path d="M43.7052 43.7226L11.858 73.3586L9.88067 71.1106L43.2948 43.255L43.7052 43.7226Z" fill="url(#paint32_radial_0_4)"/>
<path d="M43.7422 43.6846L17.3407 78.2755L15.0134 76.3933L43.2589 43.293L43.7422 43.6846Z" fill="url(#paint33_radial_0_4)"/>
<path d="M43.7709 43.6415L23.597 82.2073L20.9855 80.746L43.2291 43.3378L43.7709 43.6415Z" fill="url(#paint34_radial_0_4)"/>
<path d="M43.7925 43.5932L30.4321 85.0125L27.6103 84.0153L43.2076 43.3861L43.7925 43.5932Z" fill="url(#paint35_radial_0_4)"/>
<path d="M43.8058 43.5414L37.6295 86.6377L34.6793 86.1305L43.1942 43.4362L43.8058 43.5414Z" fill="url(#paint36_radial_0_4)"/>
</g>
<defs>
<radialGradient id="paint0_radial_0_4" cx="0" cy="0" r="1" gradientUnits="userSpaceOnUse" gradientTransform="translate(43.5009 43.5) scale(43.501 43.5)">
<stop stop-color="#F6874F" stop-opacity="0.5"/>
<stop offset="1" stop-color="#F6874F" stop-opacity="0"/>
</radialGradient>
<radialGradient id="paint1_radial_0_4" cx="0" cy="0" r="1" gradientUnits="userSpaceOnUse" gradientTransform="translate(43.5009 43.5) scale(43.501 43.5)">
<stop stop-color="#F6874F" stop-opacity="0.5"/>
<stop offset="1" stop-color="#F6874F" stop-opacity="0"/>
</radialGradient>
<radialGradient id="paint2_radial_0_4" cx="0" cy="0" r="1" gradientUnits="userSpaceOnUse" gradientTransform="translate(43.5009 43.5) scale(43.501 43.5)">
<stop stop-color="#F6874F" stop-opacity="0.5"/>
<stop offset="1" stop-color="#F6874F" stop-opacity="0"/>
</radialGradient>
<radialGradient id="paint3_radial_0_4" cx="0" cy="0" r="1" gradientUnits="userSpaceOnUse" gradientTransform="translate(43.5009 43.5) scale(43.501 43.5)">
<stop stop-color="#F6874F" stop-opacity="0.5"/>
<stop offset="1" stop-color="#F6874F" stop-opacity="0"/>
</radialGradient>
<radialGradient id="paint4_radial_0_4" cx="0" cy="0" r="1" gradientUnits="userSpaceOnUse" gradientTransform="translate(43.5009 43.5) scale(43.501 43.5)">
<stop stop-color="#F6874F" stop-opacity="0.5"/>
<stop offset="1" stop-color="#F6874F" stop-opacity="0"/>
</radialGradient>
<radialGradient id="paint5_radial_0_4" cx="0" cy="0" r="1" gradientUnits="userSpaceOnUse" gradientTransform="translate(43.5009 43.5) scale(43.501 43.5)">
<stop stop-color="#F6874F" stop-opacity="0.5"/>
<stop offset="1" stop-color="#F6874F" stop-opacity="0"/>
</radialGradient>
<radialGradient id="paint6_radial_0_4" cx="0" cy="0" r="1" gradientUnits="userSpaceOnUse" gradientTransform="translate(43.5009 43.5) scale(43.501 43.5)">
<stop stop-color="#F6874F" stop-opacity="0.5"/>
<stop offset="1" stop-color="#F6874F" stop-opacity="0"/>
</radialGradient>
<radialGradient id="paint7_radial_0_4" cx="0" cy="0" r="1" gradientUnits="userSpaceOnUse" gradientTransform="translate(43.5009 43.5) scale(43.501 43.5)">
<stop stop-color="#F6874F" stop-opacity="0.5"/>
<stop offset="1" stop-color="#F6874F" stop-opacity="0"/>
</radialGradient>
<radialGradient id="paint8_radial_0_4" cx="0" cy="0" r="1" gradientUnits="userSpaceOnUse" gradientTransform="translate(43.5009 43.5) scale(43.501 43.5)">
<stop stop-color="#F6874F" stop-opacity="0.5"/>
<stop offset="1" stop-color="#F6874F" stop-opacity="0"/>
</radialGradient>
<radialGradient id="paint9_radial_0_4" cx="0" cy="0" r="1" gradientUnits="userSpaceOnUse" gradientTransform="translate(43.5009 43.5) scale(43.501 43.5)">
<stop stop-color="#F6874F" stop-opacity="0.5"/>
<stop offset="1" stop-color="#F6874F" stop-opacity="0"/>
</radialGradient>
<radialGradient id="paint10_radial_0_4" cx="0" cy="0" r="1" gradientUnits="userSpaceOnUse" gradientTransform="translate(43.5009 43.5) scale(43.501 43.5)">
<stop stop-color="#F6874F" stop-opacity="0.5"/>
<stop offset="1" stop-color="#F6874F" stop-opacity="0"/>
</radialGradient>
<radialGradient id="paint11_radial_0_4" cx="0" cy="0" r="1" gradientUnits="userSpaceOnUse" gradientTransform="translate(43.5009 43.5) scale(43.501 43.5)">
<stop stop-color="#F6874F" stop-opacity="0.5"/>
<stop offset="1" stop-color="#F6874F" stop-opacity="0"/>
</radialGradient>
<radialGradient id="paint12_radial_0_4" cx="0" cy="0" r="1" gradientUnits="userSpaceOnUse" gradientTransform="translate(43.5009 43.5) scale(43.501 43.5)">
<stop stop-color="#F6874F" stop-opacity="0.5"/>
<stop offset="1" stop-color="#F6874F" stop-opacity="0"/>
</radialGradient>
<radialGradient id="paint13_radial_0_4" cx="0" cy="0" r="1" gradientUnits="userSpaceOnUse" gradientTransform="translate(43.5009 43.5) scale(43.501 43.5)">
<stop stop-color="#F6874F" stop-opacity="0.5"/>
<stop offset="1" stop-color="#F6874F" stop-opacity="0"/>
</radialGradient>
<radialGradient id="paint14_radial_0_4" cx="0" cy="0" r="1" gradientUnits="userSpaceOnUse" gradientTransform="translate(43.5009 43.5) scale(43.501 43.5)">
<stop stop-color="#F6874F" stop-opacity="0.5"/>
<stop offset="1" stop-color="#F6874F" stop-opacity="0"/>
</radialGradient>
<radialGradient id="paint15_radial_0_4" cx="0" cy="0" r="1" gradientUnits="userSpaceOnUse" gradientTransform="translate(43.5009 43.5) scale(43.501 43.5)">
<stop stop-color="#F6874F" stop-opacity="0.5"/>
<stop offset="1" stop-color="#F6874F" stop-opacity="0"/>
</radialGradient>
<radialGradient id="paint16_radial_0_4" cx="0" cy="0" r="1" gradientUnits="userSpaceOnUse" gradientTransform="translate(43.5009 43.5) scale(43.501 43.5)">
<stop stop-color="#F6874F" stop-opacity="0.5"/>
<stop offset="1" stop-color="#F6874F" stop-opacity="0"/>
</radialGradient>
<radialGradient id="paint17_radial_0_4" cx="0" cy="0" r="1" gradientUnits="userSpaceOnUse" gradientTransform="translate(43.5009 43.5) scale(43.501 43.5)">
<stop stop-color="#F6874F" stop-opacity="0.5"/>
<stop offset="1" stop-color="#F6874F" stop-opacity="0"/>
</radialGradient>
<radialGradient id="paint18_radial_0_4" cx="0" cy="0" r="1" gradientUnits="userSpaceOnUse" gradientTransform="translate(43.5009 43.5) scale(43.501 43.5)">
<stop stop-color="#F6874F" stop-opacity="0.5"/>
<stop offset="1" stop-color="#F6874F" stop-opacity="0"/>
</radialGradient>
<radialGradient id="paint19_radial_0_4" cx="0" cy="0" r="1" gradientUnits="userSpaceOnUse" gradientTransform="translate(43.5009 43.5) scale(43.501 43.5)">
<stop stop-color="#F6874F" stop-opacity="0.5"/>
<stop offset="1" stop-color="#F6874F" stop-opacity="0"/>
</radialGradient>
<radialGradient id="paint20_radial_0_4" cx="0" cy="0" r="1" gradientUnits="userSpaceOnUse" gradientTransform="translate(43.5009 43.5) scale(43.501 43.5)">
<stop stop-color="#F6874F" stop-opacity="0.5"/>
<stop offset="1" stop-color="#F6874F" stop-opacity="0"/>
</radialGradient>
<radialGradient id="paint21_radial_0_4" cx="0" cy="0" r="1" gradientUnits="userSpaceOnUse" gradientTransform="translate(43.5009 43.5) scale(43.501 43.5)">
<stop stop-color="#F6874F" stop-opacity="0.5"/>
<stop offset="1" stop-color="#F6874F" stop-opacity="0"/>
</radialGradient>
<radialGradient id="paint22_radial_0_4" cx="0" cy="0" r="1" gradientUnits="userSpaceOnUse" gradientTransform="translate(43.5009 43.5) scale(43.501 43.5)">
<stop stop-color="#F6874F" stop-opacity="0.5"/>
<stop offset="1" stop-color="#F6874F" stop-opacity="0"/>
</radialGradient>
<radialGradient id="paint23_radial_0_4" cx="0" cy="0" r="1" gradientUnits="userSpaceOnUse" gradientTransform="translate(43.5009 43.5) scale(43.501 43.5)">
<stop stop-color="#F6874F" stop-opacity="0.5"/>
<stop offset="1" stop-color="#F6874F" stop-opacity="0"/>
</radialGradient>
<radialGradient id="paint24_radial_0_4" cx="0" cy="0" r="1" gradientUnits="userSpaceOnUse" gradientTransform="translate(43.5009 43.5) scale(43.501 43.5)">
<stop stop-color="#F6874F" stop-opacity="0.5"/>
<stop offset="1" stop-color="#F6874F" stop-opacity="0"/>
</radialGradient>
<radialGradient id="paint25_radial_0_4" cx="0" cy="0" r="1" gradientUnits="userSpaceOnUse" gradientTransform="translate(43.5009 43.5) scale(43.501 43.5)">
<stop stop-color="#F6874F" stop-opacity="0.5"/>
<stop offset="1" stop-color="#F6874F" stop-opacity="0"/>
</radialGradient>
<radialGradient id="paint26_radial_0_4" cx="0" cy="0" r="1" gradientUnits="userSpaceOnUse" gradientTransform="translate(43.5009 43.5) scale(43.501 43.5)">
<stop stop-color="#F6874F" stop-opacity="0.5"/>
<stop offset="1" stop-color="#F6874F" stop-opacity="0"/>
</radialGradient>
<radialGradient id="paint27_radial_0_4" cx="0" cy="0" r="1" gradientUnits="userSpaceOnUse" gradientTransform="translate(43.5009 43.5) scale(43.501 43.5)">
<stop stop-color="#F6874F" stop-opacity="0.5"/>
<stop offset="1" stop-color="#F6874F" stop-opacity="0"/>
</radialGradient>
<radialGradient id="paint28_radial_0_4" cx="0" cy="0" r="1" gradientUnits="userSpaceOnUse" gradientTransform="translate(43.5009 43.5) scale(43.501 43.5)">
<stop stop-color="#F6874F" stop-opacity="0.5"/>
<stop offset="1" stop-color="#F6874F" stop-opacity="0"/>
</radialGradient>
<radialGradient id="paint29_radial_0_4" cx="0" cy="0" r="1" gradientUnits="userSpaceOnUse" gradientTransform="translate(43.5009 43.5) scale(43.501 43.5)">
<stop stop-color="#F6874F" stop-opacity="0.5"/>
<stop offset="1" stop-color="#F6874F" stop-opacity="0"/>
</radialGradient>
<radialGradient id="paint30_radial_0_4" cx="0" cy="0" r="1" gradientUnits="userSpaceOnUse" gradientTransform="translate(43.5009 43.5) scale(43.501 43.5)">
<stop stop-color="#F6874F" stop-opacity="0.5"/>
<stop offset="1" stop-color="#F6874F" stop-opacity="0"/>
</radialGradient>
<radialGradient id="paint31_radial_0_4" cx="0" cy="0" r="1" gradientUnits="userSpaceOnUse" gradientTransform="translate(43.5009 43.5) scale(43.501 43.5)">
<stop stop-color="#F6874F" stop-opacity="0.5"/>
<stop offset="1" stop-color="#F6874F" stop-opacity="0"/>
</radialGradient>
<radialGradient id="paint32_radial_0_4" cx="0" cy="0" r="1" gradientUnits="userSpaceOnUse" gradientTransform="translate(43.5009 43.5) scale(43.501 43.5)">
<stop stop-color="#F6874F" stop-opacity="0.5"/>
<stop offset="1" stop-color="#F6874F" stop-opacity="0"/>
</radialGradient>
<radialGradient id="paint33_radial_0_4" cx="0" cy="0" r="1" gradientUnits="userSpaceOnUse" gradientTransform="translate(43.5009 43.5) scale(43.501 43.5)">
<stop stop-color="#F6874F" stop-opacity="0.5"/>
<stop offset="1" stop-color="#F6874F" stop-opacity="0"/>
</radialGradient>
<radialGradient id="paint34_radial_0_4" cx="0" cy="0" r="1" gradientUnits="userSpaceOnUse" gradientTransform="translate(43.5009 43.5) scale(43.501 43.5)">
<stop stop-color="#F6874F" stop-opacity="0.5"/>
<stop offset="1" stop-color="#F6874F" stop-opacity="0"/>
</radialGradient>
<radialGradient id="paint35_radial_0_4" cx="0" cy="0" r="1" gradientUnits="userSpaceOnUse" gradientTransform="translate(43.5009 43.5) scale(43.501 43.5)">
<stop stop-color="#F6874F" stop-opacity="0.5"/>
<stop offset="1" stop-color="#F6874F" stop-opacity="0"/>
</radialGradient>
<radialGradient id="paint36_radial_0_4" cx="0" cy="0" r="1" gradientUnits="userSpaceOnUse" gradientTransform="translate(43.5009 43.5) scale(43.501 43.5)">
<stop stop-color="#F6874F" stop-opacity="0.5"/>
<stop offset="1" stop-color="#F6874F" stop-opacity="0"/>
</radialGradient>
</defs>
</svg>
