<svg preserveAspectRatio="none" width="100%" height="100%" overflow="visible" style="display: block;" viewBox="0 0 19.33 21.5" fill="none" xmlns="http://www.w3.org/2000/svg">
<g id="Group">
<path id="Vector" d="M18.58 5.4825V9.87253C18.58 14.7525 15.01 19.3425 10.18 20.6825C9.84996 20.7725 9.48996 20.7725 9.14996 20.6825C4.29 19.3425 0.75 14.7525 0.75 9.87253V5.4825C0.75 4.6625 1.37 3.7225 2.13 3.4325L7.69996 1.1325C8.94996 0.6225 10.37 0.6225 11.62 1.1325L15.54 2.7325L17.19 3.4225C17.95 3.7125 18.57 4.6525 18.57 5.4725H18.58V5.4825Z" stroke="var(--stroke-0, #1B1D22)" stroke-width="1.5" stroke-linecap="round" stroke-linejoin="round"/>
<path id="Vector_2" d="M8.32935 13.5314C7.27174 13.1458 6.62796 12.2719 6.6614 11.0493C6.71156 9.15806 8.82262 8.72728 8.78082 5.75293C8.78082 5.75293 12.6602 8.00933 12.6602 11.0493C12.6602 11.6729 12.4302 12.2924 12.0038 12.7765C11.4896 13.3591 10.6954 13.7529 9.66288 13.7529M8.32935 13.5314C8.71812 13.6791 9.16542 13.7529 9.66288 13.7529ZM8.32935 13.5314C8.7223 13.6791 9.1696 13.7529 9.66288 13.7529Z" fill="var(--fill-0, #0061DC)"/>
</g>
</svg>
