<svg width="27" height="54" viewBox="0 0 27 54" fill="none" xmlns="http://www.w3.org/2000/svg">
<path fill-rule="evenodd" clip-rule="evenodd" d="M27 26.999C27 41.9102 14.9121 53.998 0.000976562 53.998V0C14.9121 0 27 12.0879 27 26.999Z" fill="white"/>
<g clip-path="url(#clip0_gallery_prev)">
<path d="M3.71951 23.2805C3.84259 23.2805 3.96287 23.3173 4.06497 23.386C4.16707 23.4548 4.24634 23.5524 4.29265 23.6665C4.33897 23.7805 4.35022 23.9058 4.32498 24.0262C4.29973 24.1467 4.23913 24.2569 4.15093 24.3427L2.11347 26.3802H14.2318C14.3138 26.379 14.3952 26.3942 14.4713 26.4248C14.5474 26.4553 14.6166 26.5007 14.675 26.5583C14.7334 26.6159 14.7798 26.6845 14.8114 26.7601C14.8431 26.8357 14.8594 26.9169 14.8594 26.9989C14.8594 27.0809 14.8431 27.1621 14.8114 27.2377C14.7798 27.3134 14.7334 27.382 14.675 27.4396C14.6166 27.4971 14.5474 27.5425 14.4713 27.5731C14.3952 27.6037 14.3138 27.6188 14.2318 27.6177H2.11347L4.15093 29.6551C4.21031 29.7121 4.25772 29.7804 4.29038 29.856C4.32304 29.9315 4.34029 30.0129 4.34113 30.0952C4.34197 30.1775 4.32637 30.2591 4.29526 30.3354C4.26414 30.4116 4.21813 30.4808 4.15992 30.539C4.10171 30.5972 4.03247 30.6432 3.95626 30.6744C3.88005 30.7055 3.79839 30.7211 3.71607 30.7202C3.63376 30.7194 3.55244 30.7021 3.47687 30.6695C3.40131 30.6368 3.33302 30.5894 3.27601 30.53L0.182368 27.4364C0.0663776 27.3203 0.0012188 27.163 0.0012188 26.9989C0.0012188 26.8349 0.0663776 26.6775 0.182368 26.5615L3.27601 23.4678C3.33366 23.4086 3.40262 23.3614 3.47879 23.3293C3.55497 23.2971 3.63682 23.2805 3.71951 23.2805Z" fill="#151515"/>
</g>
<defs>
<clipPath id="clip0_gallery_prev">
<rect width="14.8495" height="14.8495" fill="white" transform="matrix(-1 0 0 1 14.8516 19.5742)"/>
</clipPath>
</defs>
</svg>
