<svg width="27" height="54" viewBox="0 0 27 54" fill="none" xmlns="http://www.w3.org/2000/svg">
<path fill-rule="evenodd" clip-rule="evenodd" d="M0 26.999C0 41.9102 12.0879 53.998 26.999 53.998V0C12.0879 0 0 12.0879 0 26.999Z" fill="white"/>
<g clip-path="url(#clip0_gallery_next)">
<path d="M23.2805 23.2805C23.1574 23.2805 23.0371 23.3173 22.935 23.386C22.8329 23.4548 22.7537 23.5524 22.7073 23.6665C22.661 23.7805 22.6498 23.9058 22.675 24.0262C22.7003 24.1467 22.7609 24.2569 22.8491 24.3427L24.8865 26.3802H12.7682C12.6862 26.379 12.6048 26.3942 12.5287 26.4248C12.4526 26.4553 12.3834 26.5007 12.325 26.5583C12.2666 26.6159 12.2202 26.6845 12.1886 26.7601C12.1569 26.8357 12.1406 26.9169 12.1406 26.9989C12.1406 27.0809 12.1569 27.1621 12.1886 27.2377C12.2202 27.3134 12.2666 27.382 12.325 27.4396C12.3834 27.4971 12.4526 27.5425 12.5287 27.5731C12.6048 27.6037 12.6862 27.6188 12.7682 27.6177H24.8865L22.8491 29.6551C22.7897 29.7121 22.7423 29.7804 22.7096 29.856C22.677 29.9315 22.6597 30.0129 22.6589 30.0952C22.658 30.1775 22.6736 30.2591 22.7047 30.3354C22.7359 30.4116 22.7819 30.4808 22.8401 30.539C22.8983 30.5972 22.9675 30.6432 23.0437 30.6744C23.12 30.7055 23.2016 30.7211 23.2839 30.7202C23.3662 30.7194 23.4476 30.7021 23.5231 30.6695C23.5987 30.6368 23.667 30.5894 23.724 30.53L26.8176 27.4364C26.9336 27.3203 26.9988 27.163 26.9988 26.9989C26.9988 26.8349 26.9336 26.6775 26.8176 26.5615L23.724 23.4678C23.6663 23.4086 23.5974 23.3614 23.5212 23.3293C23.445 23.2971 23.3632 23.2805 23.2805 23.2805Z" fill="#151515"/>
</g>
<defs>
<clipPath id="clip0_gallery_next">
<rect width="14.8495" height="14.8495" fill="white" transform="translate(12.1484 19.5742)"/>
</clipPath>
</defs>
</svg>
