<svg width="26" height="26" viewBox="0 0 26 26" fill="none" xmlns="http://www.w3.org/2000/svg">
<path d="M13.0255 2.16666C12.8718 2.16185 12.7199 2.20074 12.5875 2.2788L2.29581 8.33235C2.20383 8.38653 2.12343 8.45829 2.05918 8.54355C1.99494 8.6288 1.94812 8.72588 1.92139 8.82923C1.89467 8.93258 1.88856 9.04018 1.90342 9.14589C1.91828 9.25161 1.95382 9.35335 2.00801 9.44533C2.06219 9.5373 2.13396 9.61771 2.21922 9.68195C2.30448 9.74618 2.40156 9.793 2.50491 9.81972C2.60827 9.84644 2.71587 9.85253 2.82158 9.83767C2.92729 9.8228 3.02904 9.78725 3.12101 9.73306L3.25008 9.65689V21.9375C3.2501 22.153 3.33571 22.3596 3.48808 22.512C3.64045 22.6644 3.8471 22.75 4.06258 22.75H21.9376C22.1531 22.75 22.3597 22.6644 22.5121 22.512C22.6644 22.3596 22.7501 22.153 22.7501 21.9375V9.65689L22.8791 9.73306C22.9711 9.78726 23.0729 9.82281 23.1786 9.83768C23.2843 9.85255 23.3919 9.84646 23.4953 9.81974C23.5986 9.79302 23.6957 9.74621 23.781 9.68197C23.8662 9.61773 23.938 9.53733 23.9922 9.44535C24.0464 9.35337 24.0819 9.25162 24.0968 9.1459C24.1116 9.04019 24.1055 8.93258 24.0788 8.82923C24.0521 8.72588 24.0052 8.6288 23.941 8.54354C23.8767 8.45829 23.7963 8.38652 23.7043 8.33235L13.4127 2.2788C13.2951 2.20949 13.1619 2.17092 13.0255 2.16666ZM13.0001 3.92284L21.1251 8.70051V21.125H17.3334V12.7292C17.3334 12.5137 17.2478 12.307 17.0954 12.1547C16.943 12.0023 16.7364 11.9167 16.5209 11.9167H9.47924C9.26376 11.9167 9.05711 12.0023 8.90474 12.1547C8.75237 12.307 8.66676 12.5137 8.66674 12.7292V21.125H4.87508V8.70051L13.0001 3.92284ZM10.2917 13.5417H15.7084V21.125H10.2917V13.5417Z" fill="white"/>
</svg>
