<svg preserveAspectRatio="none" overflow="visible" style="display: block;" width="16" height="16" viewBox="0 0 16 16" fill="none" xmlns="http://www.w3.org/2000/svg">
<g id="Forward">
<path id="Vector" d="M13.8693 5.3333C13.8693 5.2272 13.8376 5.12352 13.7783 5.03552C13.7191 4.94751 13.6349 4.87918 13.5366 4.83926C13.4383 4.79933 13.3303 4.78963 13.2265 4.8114C13.1227 4.83316 13.0277 4.88539 12.9537 4.96143L7.99742 9.91768L3.04117 4.96143C2.99202 4.91024 2.93316 4.86937 2.86802 4.84122C2.80289 4.81307 2.73279 4.7982 2.66184 4.79747C2.59088 4.79675 2.52049 4.8102 2.4548 4.83702C2.38911 4.86384 2.32942 4.9035 2.27925 4.95367C2.22907 5.00385 2.18941 5.06353 2.16259 5.12923C2.13577 5.19492 2.12233 5.26531 2.12305 5.33626C2.12377 5.40722 2.13864 5.47731 2.1668 5.54245C2.19495 5.60758 2.23581 5.66645 2.287 5.71559L7.62033 11.0489C7.72036 11.1489 7.85599 11.2051 7.99742 11.2051C8.13884 11.2051 8.27448 11.1489 8.3745 11.0489L13.7078 5.71559C13.7589 5.66589 13.7995 5.60645 13.8273 5.54079C13.855 5.47513 13.8693 5.40458 13.8693 5.3333Z" fill="#1D7FEF"/>
</g>
</svg>
