<svg width="26" height="26" viewBox="0 0 26 26" fill="none" xmlns="http://www.w3.org/2000/svg">
<path d="M4.94645 3.25208C4.02222 3.25208 3.25586 4.01844 3.25586 4.94267V10.2155C3.25586 11.1397 4.02222 11.906 4.94645 11.906H10.2192C11.1435 11.906 11.9098 11.1397 11.9098 10.2155V4.94267C11.9098 4.01844 11.1435 3.25208 10.2192 3.25208H4.94645ZM15.7798 3.25208C14.8556 3.25208 14.0892 4.01844 14.0892 4.94267V10.2155C14.0892 11.1397 14.8556 11.906 15.7798 11.906H21.0526C21.9768 11.906 22.7432 11.1397 22.7432 10.2155V4.94267C22.7432 4.01844 21.9768 3.25208 21.0526 3.25208H15.7798ZM4.94645 4.87708H10.2192C10.2657 4.87708 10.2848 4.89623 10.2848 4.94267V10.2155C10.2848 10.2619 10.2657 10.281 10.2192 10.281H4.94645C4.90001 10.281 4.88086 10.2619 4.88086 10.2155V4.94267C4.88086 4.89623 4.90001 4.87707 4.94645 4.87708ZM15.7798 4.87708H21.0526C21.099 4.87708 21.1182 4.89623 21.1182 4.94267V10.2155C21.1182 10.2619 21.099 10.281 21.0526 10.281H15.7798C15.7333 10.281 15.7142 10.2619 15.7142 10.2155V4.94267C15.7142 4.89623 15.7333 4.87707 15.7798 4.87708ZM4.94645 14.0875C4.02222 14.0875 3.25586 14.8539 3.25586 15.7781V21.0509C3.25586 21.9751 4.02222 22.7415 4.94645 22.7415H10.2192C11.1435 22.7415 11.9098 21.9751 11.9098 21.0509V15.7781C11.9098 14.8539 11.1435 14.0875 10.2192 14.0875H4.94645ZM15.7798 14.0875C14.8556 14.0875 14.0892 14.8539 14.0892 15.7781V21.0509C14.0892 21.9751 14.8556 22.7415 15.7798 22.7415H21.0526C21.9768 22.7415 22.7432 21.9751 22.7432 21.0509V15.7781C22.7432 14.8539 21.9768 14.0875 21.0526 14.0875H15.7798ZM4.94645 15.7125H10.2192C10.2657 15.7125 10.2848 15.7317 10.2848 15.7781V21.0509C10.2848 21.0973 10.2657 21.1165 10.2192 21.1165H4.94645C4.90001 21.1165 4.88086 21.0973 4.88086 21.0509V15.7781C4.88086 15.7317 4.90001 15.7125 4.94645 15.7125ZM15.7798 15.7125H21.0526C21.099 15.7125 21.1182 15.7317 21.1182 15.7781V21.0509C21.1182 21.0973 21.099 21.1165 21.0526 21.1165H15.7798C15.7333 21.1165 15.7142 21.0973 15.7142 21.0509V15.7781C15.7142 15.7317 15.7333 15.7125 15.7798 15.7125Z" fill="white"/>
</svg>
