<svg width="30" height="30" viewBox="0 0 30 30" fill="none" xmlns="http://www.w3.org/2000/svg">
<g clip-path="url(#clip0_1710_65539)">
<mask id="mask0_1710_65539" style="mask-type:luminance" maskUnits="userSpaceOnUse" x="0" y="0" width="30" height="30">
<path d="M30 0H0V30H30V0Z" fill="white"/>
</mask>
<g mask="url(#mask0_1710_65539)">
<path d="M14.9947 16.626C14.8322 16.626 14.6697 16.5886 14.5197 16.5011L3.48231 10.1136C3.03231 9.8511 2.88229 9.27606 3.14479 8.82606C3.40729 8.37606 3.96979 8.22604 4.43229 8.48854L14.9947 14.601L25.4947 8.52607C25.9447 8.26357 26.5197 8.4261 26.7822 8.8636C27.0447 9.3136 26.8822 9.88856 26.4447 10.1511L15.4824 16.5011C15.3199 16.5761 15.1572 16.626 14.9947 16.626Z" fill="white"/>
<path d="M15 27.9488C14.4875 27.9488 14.0625 27.5238 14.0625 27.0113V15.6738C14.0625 15.1613 14.4875 14.7363 15 14.7363C15.5125 14.7363 15.9375 15.1613 15.9375 15.6738V27.0113C15.9375 27.5238 15.5125 27.9488 15 27.9488Z" fill="white"/>
<path d="M14.9968 28.4375C13.8968 28.4375 12.8093 28.2 11.9468 27.725L5.27185 24.0125C3.45935 23.0125 2.04688 20.6 2.04688 18.525V11.4625C2.04688 9.38748 3.45935 6.98753 5.27185 5.97503L11.9468 2.275C13.6593 1.325 16.3343 1.325 18.0468 2.275L24.7218 5.98746C26.5343 6.98746 27.9468 9.39999 27.9468 11.475V18.5375C27.9468 20.6125 26.5343 23.0125 24.7218 24.025L18.0468 27.725C17.1843 28.2 16.0968 28.4375 14.9968 28.4375ZM14.9968 3.43749C14.2093 3.43749 13.4343 3.6 12.8593 3.9125L6.18436 7.62496C4.98436 8.29996 3.92188 10.0875 3.92188 11.475V18.5375C3.92188 19.9125 4.98436 21.7125 6.18436 22.3875L12.8593 26.1C13.9968 26.7375 15.9968 26.7375 17.1343 26.1L23.8093 22.3875C25.0093 21.7125 26.0718 19.925 26.0718 18.5375V11.475C26.0718 10.1 25.0093 8.29996 23.8093 7.62496L17.1343 3.9125C16.5593 3.6 15.7843 3.43749 14.9968 3.43749Z" fill="white"/>
<path d="M21.2495 17.4881C20.737 17.4881 20.312 17.0631 20.312 16.5506V12.5257L8.912 5.95068C8.462 5.68818 8.31197 5.11317 8.57447 4.67567C8.83697 4.22567 9.3995 4.07564 9.8495 4.33814L21.712 11.1882C21.9995 11.3507 22.187 11.6631 22.187 12.0006V16.5757C22.187 17.0632 21.762 17.4881 21.2495 17.4881Z" fill="white"/>
</g>
</g>
<defs>
<clipPath id="clip0_1710_65539">
<rect width="30" height="30" fill="white"/>
</clipPath>
</defs>
</svg>
