<svg width="30" height="30" viewBox="0 0 30 30" fill="none" xmlns="http://www.w3.org/2000/svg">
<g clip-path="url(#clip0_1710_65631)">
<mask id="mask0_1710_65631" style="mask-type:luminance" maskUnits="userSpaceOnUse" x="0" y="0" width="30" height="30">
<path d="M30 0H0V30H30V0Z" fill="white"/>
</mask>
<g mask="url(#mask0_1710_65631)">
<path d="M10 27.8993C9.65 27.8993 9.28748 27.8118 8.96247 27.6368C8.24998 27.2618 7.8125 26.5118 7.8125 25.7118V23.9369C4.0375 23.5494 1.5625 20.7743 1.5625 16.7993V9.29932C1.5625 4.99932 4.45 2.11182 8.75 2.11182H21.25C25.55 2.11182 28.4375 4.99932 28.4375 9.29932V16.7993C28.4375 21.0993 25.55 23.9868 21.25 23.9868H16.5375L11.2125 27.5369C10.85 27.7744 10.425 27.8993 10 27.8993ZM8.75 3.9743C5.525 3.9743 3.4375 6.0618 3.4375 9.2868V16.7869C3.4375 20.0119 5.525 22.0994 8.75 22.0994C9.2625 22.0994 9.6875 22.5244 9.6875 23.0369V25.6994C9.6875 25.8619 9.7875 25.9369 9.85 25.9744C9.91251 26.0119 10.0375 26.0494 10.175 25.9619L15.7375 22.2619C15.8875 22.1619 16.075 22.0994 16.2625 22.0994H21.2625C24.4875 22.0994 26.575 20.0119 26.575 16.7869V9.2868C26.575 6.0618 24.4875 3.9743 21.2625 3.9743H8.75Z" fill="white"/>
<path d="M14.9968 15.1367C14.4843 15.1367 14.0593 14.7117 14.0593 14.1992V13.9367C14.0593 12.4868 15.1218 11.7742 15.5218 11.4992C15.9843 11.1867 16.1343 10.9743 16.1343 10.6493C16.1343 10.0243 15.6218 9.51172 14.9968 9.51172C14.3718 9.51172 13.8593 10.0243 13.8593 10.6493C13.8593 11.1618 13.4343 11.5868 12.9218 11.5868C12.4094 11.5868 11.9844 11.1618 11.9844 10.6493C11.9844 8.98676 13.3343 7.63672 14.9968 7.63672C16.6593 7.63672 18.0093 8.98676 18.0093 10.6493C18.0093 12.0743 16.9593 12.7867 16.5718 13.0492C16.0843 13.3742 15.9343 13.5867 15.9343 13.9367V14.1992C15.9343 14.7242 15.5093 15.1367 14.9968 15.1367Z" fill="white"/>
<path d="M15 18.2495C14.475 18.2495 14.0625 17.8245 14.0625 17.312C14.0625 16.7995 14.4875 16.3745 15 16.3745C15.5125 16.3745 15.9375 16.7995 15.9375 17.312C15.9375 17.8245 15.525 18.2495 15 18.2495Z" fill="white"/>
</g>
</g>
<defs>
<clipPath id="clip0_1710_65631">
<rect width="30" height="30" fill="white"/>
</clipPath>
</defs>
</svg>
