<svg width="30" height="30" viewBox="0 0 30 30" fill="none" xmlns="http://www.w3.org/2000/svg">
<g clip-path="url(#clip0_1710_65580)">
<mask id="mask0_1710_65580" style="mask-type:luminance" maskUnits="userSpaceOnUse" x="0" y="0" width="30" height="30">
<path d="M30 0H0V30H30V0Z" fill="white"/>
</mask>
<g mask="url(#mask0_1710_65580)">
<path d="M15 28.4494C13.6375 28.4494 12.2875 28.0494 11.225 27.2619L5.85 23.2494C4.425 22.1869 3.3125 19.9619 3.3125 18.1994V8.89932C3.3125 6.97432 4.725 4.92432 6.5375 4.24932L12.775 1.91182C14.0125 1.44932 15.9625 1.44932 17.2 1.91182L23.4375 4.24932C25.25 4.92432 26.6625 6.97432 26.6625 8.89932V18.1869C26.6625 19.9619 25.55 22.1744 24.125 23.2369L18.75 27.2494C17.7125 28.0494 16.3625 28.4494 15 28.4494ZM13.4375 3.67432L7.2 6.01182C6.1375 6.41182 5.2 7.76182 5.2 8.91182V18.1994C5.2 19.3869 6.0375 21.0494 6.975 21.7494L12.35 25.7619C13.7875 26.8369 16.2125 26.8369 17.6625 25.7619L23.0375 21.7494C23.9875 21.0369 24.8125 19.3869 24.8125 18.1994V8.89932C24.8125 7.76182 23.875 6.41182 22.8125 5.99932L16.575 3.66182C15.725 3.36182 14.275 3.36182 13.4375 3.67432Z" fill="white"/>
<path d="M13.3219 17.7864C13.0844 17.7864 12.8469 17.6989 12.6594 17.5114L10.6469 15.4989C10.2844 15.1364 10.2844 14.5364 10.6469 14.1739C11.0094 13.8114 11.6094 13.8114 11.9719 14.1739L13.3219 15.5239L18.0344 10.8114C18.3969 10.4489 18.9969 10.4489 19.3594 10.8114C19.7219 11.1739 19.7219 11.7739 19.3594 12.1364L13.9844 17.5114C13.7969 17.6989 13.5594 17.7864 13.3219 17.7864Z" fill="white"/>
</g>
</g>
<defs>
<clipPath id="clip0_1710_65580">
<rect width="30" height="30" fill="white"/>
</clipPath>
</defs>
</svg>
