<svg width="30" height="30" viewBox="0 0 30 30" fill="none" xmlns="http://www.w3.org/2000/svg">
<path d="M13.0258 1.13099C13.6053 0.798307 14.3545 0.776134 15.1608 1.30189L15.3232 1.41419L15.3452 1.43128L15.3659 1.45082L19.4797 5.56458C19.4872 5.55906 19.4952 5.55313 19.5029 5.54749C19.6885 5.41227 19.9557 5.24242 20.2719 5.11537C20.5875 4.98863 20.9689 4.89767 21.3754 4.94081C21.7901 4.98486 22.2062 5.16641 22.5815 5.54261C23.344 6.3074 23.2477 7.20256 22.9978 7.83998C22.8734 8.15698 22.7076 8.42658 22.5754 8.6139C22.5688 8.6233 22.5611 8.63174 22.5546 8.64076L26.6892 12.7753L26.7038 12.7936C27.0277 13.2085 27.1998 13.6213 27.2409 14.0192C27.2821 14.4186 27.1878 14.7785 27.02 15.0787C26.735 15.588 26.2315 15.9407 25.7724 16.0724L25.5795 16.1151L22.7805 16.5448L22.7658 16.5473C20.159 16.8405 17.798 18.1413 16.0751 19.389C15.2167 20.0108 14.5228 20.6141 14.0451 21.0614C13.83 21.2628 13.6599 21.4334 13.5373 21.5582L16.0813 24.61C16.2637 24.8289 16.5435 25.2876 16.6245 25.882C16.7078 26.4942 16.5752 27.2298 15.9567 27.9547L15.9482 27.9657L15.9372 27.9767L15.4758 28.4369L15.4697 28.4442L15.4624 28.4503C14.6861 29.1498 13.8956 29.2509 13.237 29.0643C12.6085 28.8862 12.1335 28.4574 11.9089 28.1427L9.67134 25.0104C9.20997 25.3348 8.55571 25.5768 7.85493 25.6134C6.93544 25.6614 5.90489 25.3619 5.09126 24.4196L3.41402 22.5336C2.13149 21.0907 2.26189 18.8742 3.70454 17.5922L3.72407 17.5751L3.74483 17.5604C3.74543 17.56 3.74703 17.559 3.74849 17.558C3.75135 17.5561 3.75603 17.5535 3.76192 17.5494C3.77441 17.5409 3.7941 17.5269 3.81929 17.5092C3.86958 17.4738 3.9445 17.421 4.04024 17.3505C4.2327 17.2087 4.51084 16.9971 4.84712 16.7206C5.52004 16.1674 6.42604 15.3554 7.35811 14.3244C9.2278 12.256 11.1724 9.33574 11.5842 5.86732V5.86122L12.0212 2.58363C12.0886 2.07782 12.4485 1.46245 13.0258 1.13099ZM11.185 23.6884L13.5361 26.9806C13.6479 27.1372 13.925 27.16 14.0622 27.0233L14.5236 26.5631L14.5261 26.5607C14.5978 26.4901 14.641 26.3649 14.6323 26.1981C14.6281 26.119 14.6122 26.0438 14.592 25.9845C14.5697 25.9192 14.5507 25.8975 14.5566 25.9039L14.5444 25.8917L12.0615 22.9083L11.185 23.6884ZM5.03267 19.0863C4.73229 19.3536 4.55568 19.7199 4.53218 20.119C4.50819 20.5188 4.64088 20.9029 4.90694 21.203L6.58662 23.0914C6.81975 23.3539 7.12864 23.5222 7.47041 23.5761L7.61934 23.5919C8.02372 23.6165 8.40379 23.4831 8.70454 23.216L11.7185 20.5475L8.04048 16.4105L5.03267 19.0863ZM13.5678 6.12611C13.1281 9.42073 11.6747 12.5319 9.4687 15.0079L13.1955 19.2011C13.2907 19.1064 13.4087 18.9921 13.5495 18.8629C13.9691 18.4779 14.5903 17.9561 15.4013 17.4042C17.0228 16.3008 19.4102 15.0709 22.4729 14.5697H22.4765L25.2304 14.1449L13.9963 2.91078L13.5678 6.12611ZM21.069 6.94764L20.9445 7.03065L21.0935 7.17957L21.1777 7.05628C21.1979 7.02587 21.1939 6.98343 21.1679 6.95741C21.1551 6.9446 21.1381 6.93718 21.1203 6.93543L21.069 6.94764Z" fill="white"/>
</svg>
