<svg width="30" height="30" viewBox="0 0 30 30" fill="none" xmlns="http://www.w3.org/2000/svg">
<g clip-path="url(#clip0_1710_65524)">
<mask id="mask0_1710_65524" style="mask-type:alpha" maskUnits="userSpaceOnUse" x="0" y="0" width="30" height="30">
<path d="M30 0H0V30H30V0Z" fill="white"/>
</mask>
<g mask="url(#mask0_1710_65524)">
<path d="M12.4813 28.4386C12.2313 28.4386 12.0312 28.3886 11.8812 28.3261C11.3812 28.1386 10.5312 27.5261 10.5312 25.5886V22.5386C10.5312 22.0261 10.9563 21.6011 11.4688 21.6011C11.9813 21.6011 12.4062 22.0261 12.4062 22.5386V25.5886C12.4062 26.2136 12.5187 26.4886 12.5687 26.5636C12.6062 26.5136 12.8687 26.3886 13.2812 25.9136L22.7437 15.1636C23.0937 14.7636 23.1437 14.5136 23.1437 14.4636C23.1187 14.4511 22.8937 14.3261 22.3687 14.3261H21.2062C20.6937 14.3261 20.2687 13.9011 20.2687 13.3886C20.2687 12.8761 20.6937 12.4512 21.2062 12.4512H22.3687C24.0437 12.4512 24.6437 13.2386 24.8562 13.7011C25.0687 14.1761 25.2562 15.1386 24.1562 16.4011L14.6937 27.1511C13.8062 28.1761 13.0312 28.4386 12.4813 28.4386Z" fill="#1B1D22"/>
<path d="M11.4733 19.0251C10.9608 19.0251 10.5358 18.6001 10.5358 18.0876V17.5501H7.61077C5.93577 17.5501 5.33577 16.7626 5.12327 16.3001C4.91077 15.8251 4.72327 14.8626 5.82327 13.6001L15.2858 2.85018C16.5608 1.40018 17.5983 1.50018 18.0983 1.68768C18.5983 1.87518 19.4483 2.48768 19.4483 4.42518V11.0627C19.4483 11.5752 19.0233 12.0002 18.5108 12.0002C17.9983 12.0002 17.5733 11.5752 17.5733 11.0627V4.40018C17.5733 3.77518 17.4608 3.50018 17.4108 3.42518C17.3733 3.47518 17.1108 3.60018 16.6983 4.07518L7.23577 14.8251C6.88577 15.2251 6.83577 15.4751 6.83577 15.5251C6.86077 15.5376 7.08577 15.6626 7.61077 15.6626H11.4733C11.9858 15.6626 12.4108 16.0876 12.4108 16.6001V18.0751C12.4108 18.6001 11.9858 19.0251 11.4733 19.0251Z" fill="#1B1D22"/>
<path d="M2.49688 28.4369C2.25938 28.4369 2.02188 28.3494 1.83437 28.1619C1.47188 27.7994 1.47188 27.1994 1.83437 26.8369L26.8343 1.83682C27.1968 1.47432 27.7968 1.47432 28.1593 1.83682C28.5218 2.19932 28.5218 2.79932 28.1593 3.16182L3.15937 28.1619C2.97187 28.3494 2.73438 28.4369 2.49688 28.4369Z" fill="#1B1D22"/>
</g>
</g>
<defs>
<clipPath id="clip0_1710_65524">
<rect width="30" height="30" fill="white"/>
</clipPath>
</defs>
</svg>
