<svg width="30" height="30" viewBox="0 0 30 30" fill="none" xmlns="http://www.w3.org/2000/svg">
<g clip-path="url(#clip0_1710_65611)">
<mask id="mask0_1710_65611" style="mask-type:alpha" maskUnits="userSpaceOnUse" x="0" y="0" width="30" height="30">
<path d="M30 0H0V30H30V0Z" fill="white"/>
</mask>
<g mask="url(#mask0_1710_65611)">
<path d="M15 11.9753C8.6375 11.9753 2.1875 10.3003 2.1875 7.07529C2.1875 3.85029 8.6375 2.17529 15 2.17529C21.3625 2.17529 27.8125 3.86279 27.8125 7.07529C27.8125 10.2878 21.3625 11.9753 15 11.9753ZM15 4.06279C7.925 4.06279 4.0625 6.06279 4.0625 7.08779C4.0625 8.11279 7.925 10.1128 15 10.1128C22.075 10.1128 25.9375 8.11279 25.9375 7.08779C25.9375 6.06279 22.075 4.06279 15 4.06279Z" fill="#1B1D22"/>
<path d="M15 19.9C8.6375 19.9 2.1875 18.2125 2.1875 15C2.1875 14.4875 2.6125 14.0625 3.125 14.0625C3.6375 14.0625 4.0625 14.4875 4.0625 15C4.0625 16.025 7.925 18.025 15 18.025C22.075 18.025 25.9375 16.025 25.9375 15C25.9375 14.4875 26.3625 14.0625 26.875 14.0625C27.3875 14.0625 27.8125 14.4875 27.8125 15C27.8125 18.2125 21.3625 19.9 15 19.9Z" fill="#1B1D22"/>
<path d="M15 27.8126C8.6375 27.8126 2.1875 26.1251 2.1875 22.9126C2.1875 22.4001 2.6125 21.9751 3.125 21.9751C3.6375 21.9751 4.0625 22.4001 4.0625 22.9126C4.0625 23.9376 7.925 25.9376 15 25.9376C22.075 25.9376 25.9375 23.9376 25.9375 22.9126C25.9375 22.4001 26.3625 21.9751 26.875 21.9751C27.3875 21.9751 27.8125 22.4001 27.8125 22.9126C27.8125 26.1251 21.3625 27.8126 15 27.8126Z" fill="#1B1D22"/>
<path d="M26.875 23.8502C26.3625 23.8502 25.9375 23.4252 25.9375 22.9127V7.0752C25.9375 6.5627 26.3625 6.1377 26.875 6.1377C27.3875 6.1377 27.8125 6.5627 27.8125 7.0752V22.9127C27.8125 23.4377 27.3875 23.8502 26.875 23.8502Z" fill="#1B1D22"/>
<path d="M3.125 23.8502C2.6125 23.8502 2.1875 23.4252 2.1875 22.9127V7.0752C2.1875 6.5627 2.6125 6.1377 3.125 6.1377C3.6375 6.1377 4.0625 6.5627 4.0625 7.0752V22.9127C4.0625 23.4377 3.6375 23.8502 3.125 23.8502Z" fill="#1B1D22"/>
</g>
</g>
<defs>
<clipPath id="clip0_1710_65611">
<rect width="30" height="30" fill="white"/>
</clipPath>
</defs>
</svg>
