<svg width="30" height="30" viewBox="0 0 30 30" fill="none" xmlns="http://www.w3.org/2000/svg">
<g clip-path="url(#clip0_1710_65623)">
<mask id="mask0_1710_65623" style="mask-type:luminance" maskUnits="userSpaceOnUse" x="0" y="0" width="30" height="30">
<path d="M30 0H0V30H30V0Z" fill="white"/>
</mask>
<g mask="url(#mask0_1710_65623)">
<path d="M15.0093 28.1246C9.44689 28.1246 4.92188 23.6121 4.92188 18.0496C4.92188 15.3496 6.02185 12.6996 7.94685 10.7746C8.17185 10.5496 8.49685 10.4621 8.79685 10.5246C9.10935 10.5871 9.3594 10.7996 9.4719 11.0996C9.8844 12.1246 10.7219 12.8746 11.7469 13.1746C11.7719 11.3121 12.0844 7.53712 14.0343 4.63712C14.7718 3.53712 15.7094 2.66211 16.8094 2.01211C17.0969 1.83711 17.4594 1.83711 17.7469 2.01211C18.0344 2.17461 18.222 2.48711 18.222 2.82461C18.222 5.51211 19.6093 7.19961 21.2218 9.16211C23.0218 11.3621 25.0718 13.8621 25.0718 18.0621C25.0718 23.6121 20.5593 28.1246 15.0093 28.1246ZM8.44689 13.0621C7.38439 14.4996 6.78436 16.2621 6.78436 18.0496C6.78436 22.5746 10.4719 26.2496 14.9968 26.2496C19.5218 26.2496 23.1968 22.5746 23.1968 18.0496C23.1968 14.5121 21.5343 12.4871 19.7718 10.3371C18.3968 8.66212 16.9969 6.94961 16.5094 4.56211C16.1719 4.88711 15.8593 5.26211 15.5843 5.67461C13.2968 9.06211 13.6343 14.1246 13.6343 14.1746C13.6468 14.4371 13.5595 14.6871 13.3844 14.8746C13.2094 15.0621 12.9593 15.1746 12.6968 15.1746C10.9968 15.1746 9.44689 14.3746 8.44689 13.0621Z" fill="white"/>
</g>
</g>
<defs>
<clipPath id="clip0_1710_65623">
<rect width="30" height="30" fill="white"/>
</clipPath>
</defs>
</svg>
