<svg width="30" height="30" viewBox="0 0 30 30" fill="none" xmlns="http://www.w3.org/2000/svg">
<g clip-path="url(#clip0_1710_65515)">
<mask id="mask0_1710_65515" style="mask-type:luminance" maskUnits="userSpaceOnUse" x="0" y="0" width="30" height="30">
<path d="M30 0H0V30H30V0Z" fill="white"/>
</mask>
<g mask="url(#mask0_1710_65515)">
<path d="M15 28.4374C7.5875 28.4374 1.5625 22.4124 1.5625 14.9999C1.5625 9.12486 5.33752 3.97486 10.9625 2.18736C11.45 2.02486 11.9874 2.29986 12.1375 2.79986C12.2874 3.29986 12.025 3.82484 11.525 3.97484C6.76246 5.48734 3.4375 10.0249 3.4375 14.9999C3.4375 21.3749 8.625 26.5624 15 26.5624C20 26.5624 24.5375 23.2124 26.0375 18.4249C26.1875 17.9249 26.725 17.6499 27.2125 17.8124C27.7125 17.9624 27.9875 18.4874 27.825 18.9874C26.0875 24.5499 20.8125 28.4374 15 28.4374Z" fill="white"/>
<path d="M24.6875 15.9377H17.5C15.6 15.9377 14.0625 14.4002 14.0625 12.5002V5.31274C14.0625 4.23774 14.5499 3.23774 15.3999 2.57524C16.2124 1.93774 17.25 1.71274 18.225 1.95024C23.0875 3.15024 26.8499 6.91274 28.0499 11.7752C28.2874 12.7627 28.0624 13.7877 27.4249 14.6002C26.7624 15.4502 25.7625 15.9377 24.6875 15.9377ZM17.4375 3.72523C17.025 3.72523 16.725 3.91273 16.55 4.03773C16.1625 4.33773 15.9375 4.81274 15.9375 5.30024V12.5002C15.9375 13.3627 16.6375 14.0627 17.5 14.0627H24.6875C25.175 14.0627 25.65 13.8377 25.95 13.4502C26.1125 13.2377 26.3625 12.8002 26.225 12.2252C25.2 8.03774 21.95 4.80024 17.775 3.77524C17.6625 3.75024 17.55 3.72523 17.4375 3.72523Z" fill="white"/>
</g>
</g>
<defs>
<clipPath id="clip0_1710_65515">
<rect width="30" height="30" fill="white"/>
</clipPath>
</defs>
</svg>
