<svg width="30" height="30" viewBox="0 0 30 30" fill="none" xmlns="http://www.w3.org/2000/svg">
<g clip-path="url(#clip0_1710_65567)">
<mask id="mask0_1710_65567" style="mask-type:alpha" maskUnits="userSpaceOnUse" x="0" y="0" width="30" height="30">
<path d="M30 0H0V30H30V0Z" fill="white"/>
</mask>
<g mask="url(#mask0_1710_65567)">
<path d="M12.2281 28.4374H5.29063C3.24063 28.4374 1.57812 26.7749 1.57812 24.7249V8.0499C1.57812 5.9999 3.24063 4.3374 5.29063 4.3374H12.2281C14.2782 4.3374 15.9407 5.9999 15.9407 8.0499V24.7124C15.9407 26.7624 14.2782 28.4249 12.2281 28.4249V28.4374ZM5.27813 6.2124C4.26562 6.2124 3.44062 7.0374 3.44062 8.0499V24.7124C3.44062 25.7249 4.26562 26.5499 5.27813 26.5499H12.2156C13.2282 26.5499 14.0532 25.7249 14.0532 24.7124V8.0499C14.0532 7.0374 13.2282 6.2124 12.2156 6.2124H5.27813Z" fill="#1B1D22"/>
<path d="M24.7281 28.4372H17.7906C15.7406 28.4372 14.0781 26.7747 14.0781 24.7247V17.7872C14.0781 15.7372 15.7406 14.0747 17.7906 14.0747H24.7281C26.7781 14.0747 28.4406 15.7372 28.4406 17.7872V24.7247C28.4406 26.7747 26.7781 28.4372 24.7281 28.4372ZM17.7781 15.9372C16.7656 15.9372 15.9406 16.7622 15.9406 17.7747V24.7122C15.9406 25.7247 16.7656 26.5497 17.7781 26.5497H24.7156C25.7281 26.5497 26.5531 25.7247 26.5531 24.7122V17.7747C26.5531 16.7622 25.7281 15.9372 24.7156 15.9372H17.7781Z" fill="#1B1D22"/>
<path d="M8.75625 6.2123C8.51875 6.2123 8.28125 6.1248 8.09375 5.9373L5.31875 3.1623C4.95625 2.7998 4.95625 2.1998 5.31875 1.8373C5.68125 1.4748 6.28125 1.4748 6.64375 1.8373L8.75625 3.9498L10.8687 1.8373C11.2312 1.4748 11.8313 1.4748 12.1938 1.8373C12.5563 2.1998 12.5563 2.7998 12.1938 3.1623L9.41875 5.9373C9.23125 6.1248 8.99375 6.2123 8.75625 6.2123Z" fill="#1B1D22"/>
<path d="M21.2562 15.9374C21.0187 15.9374 20.7812 15.8499 20.5937 15.6624L17.8187 12.8874C17.4563 12.5249 17.4563 11.9249 17.8187 11.5624C18.1812 11.1999 18.7813 11.1999 19.1438 11.5624L21.2562 13.6749L23.3688 11.5624C23.7313 11.1999 24.3313 11.1999 24.6938 11.5624C25.0563 11.9249 25.0563 12.5249 24.6938 12.8874L21.9188 15.6624C21.7313 15.8499 21.4937 15.9374 21.2562 15.9374Z" fill="#1B1D22"/>
<path d="M8.75 28.4374C8.2375 28.4374 7.8125 28.0124 7.8125 27.4999V5.2749C7.8125 4.7624 8.2375 4.3374 8.75 4.3374C9.2625 4.3374 9.6875 4.7624 9.6875 5.2749V27.4999C9.6875 28.0124 9.2625 28.4374 8.75 28.4374Z" fill="#1B1D22"/>
<path d="M21.25 28.4375C20.7375 28.4375 20.3125 28.0125 20.3125 27.5V15C20.3125 14.4875 20.7375 14.0625 21.25 14.0625C21.7625 14.0625 22.1875 14.4875 22.1875 15V27.5C22.1875 28.0125 21.7625 28.4375 21.25 28.4375Z" fill="#1B1D22"/>
</g>
</g>
<defs>
<clipPath id="clip0_1710_65567">
<rect width="30" height="30" fill="white"/>
</clipPath>
</defs>
</svg>
