<svg width="30" height="30" viewBox="0 0 30 30" fill="none" xmlns="http://www.w3.org/2000/svg">
<g clip-path="url(#clip0_1710_65557)">
<mask id="mask0_1710_65557" style="mask-type:alpha" maskUnits="userSpaceOnUse" x="0" y="0" width="30" height="30">
<path d="M30 0H0V30H30V0Z" fill="white"/>
</mask>
<g mask="url(#mask0_1710_65557)">
<path d="M12.1375 12.7939C12.1375 13.5911 11.4911 14.2376 10.6938 14.2376C9.89639 14.2376 9.25 13.5911 9.25 12.7939C9.25 11.9965 9.89639 11.3501 10.6938 11.3501C11.4911 11.3501 12.1375 11.9965 12.1375 12.7939Z" fill="#1B1D22"/>
<path d="M16.9407 28.0251C15.6907 28.0251 14.5157 27.5376 13.6282 26.6501L5.01562 18.0376C4.12812 17.1501 3.64062 15.9751 3.64062 14.7251V10.2501C3.64062 7.73756 5.60312 5.68756 8.11562 5.56256L12.0531 5.38756C13.3657 5.32506 14.6532 5.82506 15.5782 6.75006L24.5532 15.7126C25.4407 16.6001 25.9282 17.7751 25.9282 19.0251C25.9282 20.2751 25.4407 21.4501 24.5532 22.3376L20.2532 26.6376C19.3657 27.5251 18.1907 28.0126 16.9407 28.0126V28.0251ZM12.2656 7.26256C12.2656 7.26256 12.1781 7.26256 12.1406 7.26256L8.20312 7.43756C6.69063 7.51256 5.51562 8.73756 5.51562 10.2501V14.7251C5.51562 15.4626 5.81562 16.1876 6.34062 16.7126L14.9532 25.3251C16.0157 26.3876 17.8657 26.3876 18.9282 25.3251L23.2282 21.0251C23.7657 20.4876 24.0532 19.7876 24.0532 19.0376C24.0532 18.2876 23.7657 17.5751 23.2282 17.0501L14.2532 8.08756C13.7282 7.56256 13.0032 7.26256 12.2656 7.26256Z" fill="#1B1D22"/>
<path d="M25.4125 13.1625C25.175 13.1625 24.9375 13.075 24.75 12.8875L16.7375 4.975C15.7375 3.9875 14.4125 3.4375 13 3.4375H8.75C8.2375 3.4375 7.8125 3.0125 7.8125 2.5C7.8125 1.9875 8.2375 1.5625 8.75 1.5625H13C14.9 1.5625 16.7 2.3 18.05 3.6375L26.075 11.5625C26.4375 11.925 26.45 12.525 26.075 12.8875C25.8875 13.075 25.65 13.1625 25.4125 13.1625Z" fill="#1B1D22"/>
</g>
</g>
<defs>
<clipPath id="clip0_1710_65557">
<rect width="30" height="30" fill="white"/>
</clipPath>
</defs>
</svg>
