<svg width="30" height="30" viewBox="0 0 30 30" fill="none" xmlns="http://www.w3.org/2000/svg">
<g clip-path="url(#clip0_1710_65589)">
<mask id="mask0_1710_65589" style="mask-type:luminance" maskUnits="userSpaceOnUse" x="0" y="0" width="30" height="30">
<path d="M30 0H0V30H30V0Z" fill="white"/>
</mask>
<g mask="url(#mask0_1710_65589)">
<path d="M10.375 18.9375C9.8625 18.9375 9.4375 18.5125 9.4375 18V12C9.4375 11.4875 9.8625 11.0625 10.375 11.0625C10.8875 11.0625 11.3125 11.4875 11.3125 12V18C11.3125 18.5125 10.8875 18.9375 10.375 18.9375Z" fill="white"/>
<path d="M22.5 18.9376C21.9875 18.9376 21.5625 18.5126 21.5625 18.0001V14.3376L20.3 15.6501C19.95 16.0126 19.3 16.0126 18.95 15.6501L17.6875 14.3376V18.0001C17.6875 18.5126 17.2625 18.9376 16.75 18.9376C16.2375 18.9376 15.8125 18.5126 15.8125 18.0001V12.0002C15.8125 11.6127 16.05 11.2752 16.4 11.1252C16.75 10.9877 17.1625 11.0752 17.425 11.3502L19.625 13.6376L21.825 11.3502C22.0875 11.0752 22.5 10.9877 22.85 11.1252C23.2 11.2627 23.4375 11.6127 23.4375 12.0002V18.0001C23.4375 18.5126 23.0125 18.9376 22.5 18.9376Z" fill="white"/>
<path d="M13.25 12.9375H7.5C6.9875 12.9375 6.5625 12.5125 6.5625 12C6.5625 11.4875 6.9875 11.0625 7.5 11.0625H13.25C13.7625 11.0625 14.1875 11.4875 14.1875 12C14.1875 12.5125 13.7625 12.9375 13.25 12.9375Z" fill="white"/>
<path d="M21.25 28.4375H8.75C4.7875 28.4375 1.5625 25.2125 1.5625 21.25V8.75C1.5625 4.7875 4.7875 1.5625 8.75 1.5625H21.25C25.2125 1.5625 28.4375 4.7875 28.4375 8.75V21.25C28.4375 25.2125 25.2125 28.4375 21.25 28.4375ZM8.75 3.4375C5.825 3.4375 3.4375 5.825 3.4375 8.75V21.25C3.4375 24.175 5.825 26.5625 8.75 26.5625H21.25C24.175 26.5625 26.5625 24.175 26.5625 21.25V8.75C26.5625 5.825 24.175 3.4375 21.25 3.4375H8.75Z" fill="white"/>
</g>
</g>
<defs>
<clipPath id="clip0_1710_65589">
<rect width="30" height="30" fill="white"/>
</clipPath>
</defs>
</svg>
